<svg id="visual" viewBox="0 0 900 600" width="900" height="600" xmlns="http://www.w3.org/2000/svg" xmlns:xlink="http://www.w3.org/1999/xlink" version="1.1"><path d="M0 528L6.8 528.2C13.7 528.3 27.3 528.7 41 530.3C54.7 532 68.3 535 82 526.5C95.7 518 109.3 498 123 489.2C136.7 480.3 150.3 482.7 164 491.2C177.7 499.7 191.3 514.3 204.8 525.8C218.3 537.3 231.7 545.7 245.2 546C258.7 546.3 272.3 538.7 286 528.2C299.7 517.7 313.3 504.3 327 499.8C340.7 495.3 354.3 499.7 368 496.8C381.7 494 395.3 484 409 478.7C422.7 473.3 436.3 472.7 450 472C463.7 471.3 477.3 470.7 491 474.2C504.7 477.7 518.3 485.3 532 486C545.7 486.7 559.3 480.3 573 488.7C586.7 497 600.3 520 614 525.8C627.7 531.7 641.3 520.3 654.8 520.2C668.3 520 681.7 531 695.2 535.8C708.7 540.7 722.3 539.3 736 538.3C749.7 537.3 763.3 536.7 777 527.5C790.7 518.3 804.3 500.7 818 496.2C831.7 491.7 845.3 500.3 859 511.7C872.7 523 886.3 537 893.2 544L900 551L900 601L893.2 601C886.3 601 872.7 601 859 601C845.3 601 831.7 601 818 601C804.3 601 790.7 601 777 601C763.3 601 749.7 601 736 601C722.3 601 708.7 601 695.2 601C681.7 601 668.3 601 654.8 601C641.3 601 627.7 601 614 601C600.3 601 586.7 601 573 601C559.3 601 545.7 601 532 601C518.3 601 504.7 601 491 601C477.3 601 463.7 601 450 601C436.3 601 422.7 601 409 601C395.3 601 381.7 601 368 601C354.3 601 340.7 601 327 601C313.3 601 299.7 601 286 601C272.3 601 258.7 601 245.2 601C231.7 601 218.3 601 204.8 601C191.3 601 177.7 601 164 601C150.3 601 136.7 601 123 601C109.3 601 95.7 601 82 601C68.3 601 54.7 601 41 601C27.3 601 13.7 601 6.8 601L0 601Z" fill="#ffffff" stroke-linecap="round" stroke-linejoin="miter"></path></svg>